HIERARCHY
ROOT Hips
{
	OFFSET 51.579899 -1.153486 95.853798
	CHANNELS 6 Xposition Yposition Zposition Xrotation Yrotation Zrotation
	JOINT spine
	{
		OFFSET 0.000000 -0.458068 7.965683
		CHANNELS 3 Xrotation Yrotation Zrotation
		JOINT spine1
		{
			OFFSET 0.000000 -0.000002 10.243103
			CHANNELS 3 Xrotation Yrotation Zrotation
			JOINT spine2
			{
				OFFSET 0.000000 -0.000002 9.814751
				CHANNELS 3 Xrotation Yrotation Zrotation
				JOINT Neck
				{
					OFFSET 0.000000 -1.201384 25.198593
					CHANNELS 3 Xrotation Yrotation Zrotation
					JOINT Head
					{
						OFFSET 0.000000 -0.000001 7.613144
						CHANNELS 3 Xrotation Yrotation Zrotation
						End Site
						{
							OFFSET 0.000000 6.077327 18.428101
						}
					}
				}
				JOINT RightShoulder
				{
					OFFSET -4.132702 0.575449 10.599197
					CHANNELS 3 Xrotation Yrotation Zrotation
					JOINT RightArm
					{
						OFFSET 0.000000 -0.000002 13.901794
						CHANNELS 3 Xrotation Yrotation Zrotation
						JOINT RightArmRoll
						{
							OFFSET 0.000000 -0.000001 7.017883
							CHANNELS 3 Xrotation Yrotation Zrotation
							JOINT RightForeArm
							{
								OFFSET 0.000000 -0.000003 20.440598
								CHANNELS 3 Xrotation Yrotation Zrotation
								JOINT RightForeArmRoll
								{
									OFFSET 0.000000 -0.000001 7.875153
									CHANNELS 3 Xrotation Yrotation Zrotation
									JOINT RightHand
									{
										OFFSET 0.000000 -0.000003 15.803696
										CHANNELS 3 Xrotation Yrotation Zrotation
										End Site
										{
											OFFSET 0.000000 0.000000 0.100006
										}
									}
								}
							}
						}
					}
				}
				JOINT LeftShoulder
				{
					OFFSET 4.132702 0.575449 10.599197
					CHANNELS 3 Xrotation Yrotation Zrotation
					JOINT LeftArm
					{
						OFFSET 0.000000 -0.000002 13.901794
						CHANNELS 3 Xrotation Yrotation Zrotation
						JOINT LeftArmRoll
						{
							OFFSET 0.000000 -0.000001 7.017883
							CHANNELS 3 Xrotation Yrotation Zrotation
							JOINT LeftForeArm
							{
								OFFSET 0.000000 -0.000003 20.440598
								CHANNELS 3 Xrotation Yrotation Zrotation
								JOINT LeftForeArmRoll
								{
									OFFSET 0.000000 -0.000001 7.875153
									CHANNELS 3 Xrotation Yrotation Zrotation
									JOINT LeftHand
									{
										OFFSET 0.000000 -0.000003 15.803696
										CHANNELS 3 Xrotation Yrotation Zrotation
										End Site
										{
											OFFSET 0.000000 0.000000 0.100006
										}
									}
								}
							}
						}
					}
				}
			}
		}
	}
	JOINT RightUpLeg
	{
		OFFSET -7.060482 1.086100 -1.294701
		CHANNELS 3 Xrotation Yrotation Zrotation
		JOINT RightUpLegRoll
		{
			OFFSET 0.000000 -0.000003 18.530800
			CHANNELS 3 Xrotation Yrotation Zrotation
			JOINT RightLeg
			{
				OFFSET 0.000000 0.000004 -22.947601
				CHANNELS 3 Xrotation Yrotation Zrotation
				JOINT RightLegRoll
				{
					OFFSET 0.000000 -0.000004 23.022598
					CHANNELS 3 Xrotation Yrotation Zrotation
					JOINT RightFoot
					{
						OFFSET 0.000000 -0.000003 19.162498
						CHANNELS 3 Xrotation Yrotation Zrotation
						JOINT RightToeBase
						{
							OFFSET 0.000000 -0.000003 16.018799
							CHANNELS 3 Xrotation Yrotation Zrotation
							End Site
							{
								OFFSET 0.006790 0.894206 7.757812
							}
						}
					}
				}
			}
		}
	}
	JOINT LeftUpLeg
	{
		OFFSET 7.060482 1.086100 -1.294701
		CHANNELS 3 Xrotation Yrotation Zrotation
		JOINT LeftUpLegRoll
		{
			OFFSET 0.000000 -0.000003 18.530899
			CHANNELS 3 Xrotation Yrotation Zrotation
			JOINT LeftLeg
			{
				OFFSET 0.000000 -0.000004 22.947495
				CHANNELS 3 Xrotation Yrotation Zrotation
				JOINT LeftLegRoll
				{
					OFFSET 0.000000 -0.000004 23.235504
					CHANNELS 3 Xrotation Yrotation Zrotation
					JOINT LeftFoot
					{
						OFFSET 0.000000 -0.000003 18.949600
						CHANNELS 3 Xrotation Yrotation Zrotation
						JOINT LeftToeBase
						{
							OFFSET 0.000000 -0.000003 16.018799
							CHANNELS 3 Xrotation Yrotation Zrotation
							End Site
							{
								OFFSET -0.030430 0.894206 7.757812
							}
						}
					}
				}
			}
		}
	}
}
MOTION
Frames: 8
Frame Time: 0.041667
53.280300 -2.996237 95.684395 -0.167163 0.196560 0.174775 -2.483360 -0.001837 -0.038633 -0.963909 -0.002378 -0.077327 0.681168 -0.003304 -0.077282 21.984830 -0.388242 -0.160860 -0.115301 0.230157 -0.231733 -12.309981 -34.060108 -13.242520 38.695378 -43.556482 76.745112 -0.000000 0.000000 -0.000002 0.613890 4.647347 0.733967 -0.000004 -0.000000 -3.001181 -5.000137 -8.000102 -0.000021 -12.030839 38.318140 13.140998 40.725344 38.322320 -79.096712 -0.000001 0.000005 0.000001 -0.041416 -6.066690 -0.701219 -0.000004 -0.000006 3.044686 -5.000148 8.000172 0.000029 -1.162584 -177.021619 -2.910815 -179.999991 0.000005 -1.080995 173.779588 -2.431611 -0.675948 0.000003 0.000002 0.083384 69.625500 6.921327 2.030418 25.456919 -7.355062 -0.000004 -1.113913 176.712621 1.956124 -0.000020 -0.000004 -1.084060 -5.890721 2.342847 0.300566 -0.000004 -0.000002 -0.076860 69.417193 -6.918741 -2.036955 25.456952 7.355613 -0.000010 
53.258701 -3.030127 95.689598 -0.164043 0.199450 0.174278 -2.484171 -0.002281 -0.038418 -0.966070 -0.003273 -0.076912 0.679007 -0.004193 -0.076858 21.995692 -0.373615 -0.164087 -0.125844 0.204482 -0.232607 -12.309582 -34.061542 -13.242612 38.692858 -43.556482 76.743514 -0.000000 -0.000000 0.000001 0.611686 4.647519 0.733966 -0.000004 -0.000001 -3.001182 -5.000137 -8.000101 -0.000021 -12.027181 38.316432 13.136948 40.726810 38.322976 -79.098590 -0.000003 0.000004 -0.000002 -0.041421 -6.067832 -0.701371 -0.000003 -0.000003 3.044673 -5.000148 8.000170 0.000029 -1.156443 -177.025594 -2.915226 -179.999991 0.000005 -1.080996 173.794450 -2.428706 -0.674994 0.000003 0.000002 0.083177 69.618602 6.921274 2.030442 25.456919 -7.355064 -0.000004 -1.116984 176.708619 1.953638 -0.000020 -0.000004 -1.084060 -5.892375 2.343477 0.300491 -0.000004 -0.000002 -0.076816 69.418252 -6.918714 -2.037084 25.456959 7.355613 -0.000010 
53.262600 -3.022545 95.687996 -0.161972 0.202166 0.173941 -2.484752 -0.002606 -0.038135 -0.967656 -0.003932 -0.076357 0.677421 -0.004846 -0.076295 22.004768 -0.365021 -0.166664 -0.134200 0.187314 -0.233922 -12.310380 -34.063646 -13.244311 38.691007 -43.555485 76.742264 0.000000 -0.000000 -0.000002 0.609147 4.647689 0.733964 -0.000005 0.000000 -3.001178 -5.000135 -8.000102 -0.000018 -12.023095 38.313468 13.132078 40.729627 38.325001 -79.102231 -0.000002 0.000005 -0.000001 -0.041426 -6.069832 -0.701743 -0.000004 -0.000003 3.044651 -5.000146 8.000170 0.000030 -1.146364 -177.028600 -2.920003 -179.999991 0.000005 -1.080995 173.813903 -2.423825 -0.673631 0.000003 0.000002 0.083002 69.609286 6.921308 2.030428 25.456921 -7.355063 -0.000005 -1.118860 176.704630 1.951004 -0.000020 -0.000005 -1.084060 -5.894220 2.344205 0.300430 -0.000004 -0.000002 -0.076833 69.419632 -6.918740 -2.037002 25.456953 7.355613 -0.000010 
53.259102 -3.020057 95.687889 -0.160833 0.204700 0.173746 -2.485151 -0.002822 -0.037794 -0.968729 -0.004376 -0.075683 0.676348 -0.005282 -0.075617 22.012059 -0.361778 -0.168653 -0.140566 0.177735 -0.235610 -12.312489 -34.066409 -13.247582 38.689637 -43.553692 76.741383 0.000000 0.000001 -0.000000 0.606352 4.647852 0.733956 -0.000005 -0.000001 -3.001182 -5.000138 -8.000101 -0.000020 -12.018634 38.309261 13.126475 40.733404 38.328204 -79.107067 -0.000001 0.000006 0.000002 -0.041427 -6.072590 -0.702317 -0.000001 -0.000003 3.044619 -5.000151 8.000171 0.000028 -1.132922 -177.032575 -2.925007 -179.999991 0.000005 -1.080995 173.837207 -2.417968 -0.673014 0.000003 0.000002 0.082856 69.598050 6.921266 2.030523 25.456918 -7.355063 -0.000004 -1.119666 176.700627 1.948258 -0.000020 -0.000004 -1.084060 -5.896184 2.345002 0.300378 -0.000004 -0.000002 -0.076902 69.421216 -6.918740 -2.037004 25.456955 7.355613 -0.000011 
53.257000 -3.026065 95.688492 -0.160504 0.207046 0.173676 -2.485383 -0.002940 -0.037408 -0.969350 -0.004625 -0.074915 0.675727 -0.005522 -0.074848 22.017665 -0.363211 -0.170110 -0.145132 0.174825 -0.237605 -12.315525 -34.069663 -13.252087 38.688756 -43.551294 76.740761 -0.000001 0.000001 -0.000001 0.603369 4.648005 0.733947 -0.000004 -0.000001 -3.001181 -5.000134 -8.000102 -0.000021 -12.013921 38.304070 13.120320 40.738154 38.332439 -79.113296 -0.000001 0.000006 0.000002 -0.041429 -6.076020 -0.703074 -0.000000 -0.000003 3.044603 -5.000147 8.000170 0.000028 -1.116688 -177.035566 -2.930198 -179.999991 0.000005 -1.080995 173.863640 -2.411121 -0.671150 0.000003 0.000002 0.082736 69.585243 6.921262 2.030422 25.456919 -7.355063 -0.000004 -1.119520 176.697622 1.945429 -0.000020 -0.000004 -1.084050 -5.898249 2.345849 0.300334 -0.000005 -0.000002 -0.077015 69.423115 -6.918717 -2.037080 25.456955 7.355613 -0.000010 
53.251701 -3.036435 95.693497 -0.160871 0.209198 0.173713 -2.485460 -0.002970 -0.036989 -0.969584 -0.004699 -0.074077 0.675493 -0.005585 -0.074010 22.021978 -0.368637 -0.171098 -0.148120 0.177667 -0.239841 -12.319458 -34.073239 -13.257706 38.688538 -43.548327 76.740652 -0.000001 -0.000000 -0.000002 0.600276 4.648138 0.733939 -0.000005 -0.000001 -3.001178 -5.000137 -8.000103 -0.000022 -12.009005 38.298015 13.113738 40.743721 38.337418 -79.120392 0.000000 0.000004 -0.000000 -0.041434 -6.080003 -0.703968 -0.000002 -0.000003 3.044581 -5.000145 8.000170 0.000029 -1.098227 -177.038544 -2.935466 -179.999991 0.000005 -1.080995 173.892464 -2.404296 -0.670191 0.000003 0.000002 0.082639 69.571159 6.921276 2.030403 25.456919 -7.355063 -0.000005 -1.118550 176.693633 1.942601 -0.000020 -0.000004 -1.084050 -5.900355 2.346735 0.300295 -0.000005 -0.000002 -0.077164 69.425137 -6.918734 -2.036959 25.456957 7.355612 -0.000011 
53.251400 -3.038478 95.692299 -0.161815 0.211150 0.173840 -2.485420 -0.002922 -0.036547 -0.969489 -0.004617 -0.073191 0.675587 -0.005493 -0.073128 22.025000 -0.377380 -0.171676 -0.149717 0.185341 -0.242256 -12.324166 -34.077122 -13.264285 38.688633 -43.544928 76.740611 -0.000001 0.000000 0.000002 0.597145 4.648252 0.733937 -0.000004 -0.000001 -3.001179 -5.000135 -8.000102 -0.000021 -12.004006 38.291270 13.106876 40.749960 38.343169 -79.128459 -0.000001 0.000004 -0.000001 -0.041436 -6.084423 -0.704985 -0.000001 -0.000004 3.044552 -5.000148 8.000168 0.000026 -1.078130 -177.041522 -2.940721 -179.999991 0.000005 -1.080995 173.922912 -2.396472 -0.668067 0.000003 0.000002 0.082561 69.556338 6.921254 2.030425 25.456923 -7.355063 -0.000004 -1.116873 176.690628 1.939772 -0.000020 -0.000004 -1.084050 -5.902450 2.347632 0.300256 -0.000004 -0.000002 -0.077340 69.427357 -6.918723 -2.037017 25.456959 7.355613 -0.000010 
53.272099 -2.980087 95.699692 -0.163220 0.212894 0.174040 -2.485281 -0.002806 -0.036095 -0.969131 -0.004400 -0.072282 0.675946 -0.005265 -0.072223 22.026831 -0.388758 -0.171907 -0.150134 0.196928 -0.244786 -12.329387 -34.081155 -13.271543 38.689456 -43.541240 76.741185 -0.000001 0.000001 -0.000000 0.594053 4.648333 0.733931 -0.000005 -0.000000 -3.001178 -5.000137 -8.000102 -0.000021 -11.998999 38.284023 13.099891 40.756620 38.349340 -79.137003 -0.000001 0.000005 0.000001 -0.041439 -6.089179 -0.706088 -0.000003 -0.000003 3.044527 -5.000148 8.000172 0.000031 -1.056950 -177.044500 -2.945884 -179.999991 0.000005 -1.080995 173.954208 -2.388650 -0.666913 0.000003 0.000002 0.082498 69.541079 6.921246 2.030474 25.456923 -7.355064 -0.000004 -1.114613 176.687609 1.937010 -0.000020 -0.000004 -1.084040 -5.904506 2.348528 0.300215 -0.000004 -0.000002 -0.077536 69.429570 -6.918715 -2.036977 25.456957 7.355613 -0.000010 
